<mxfile host="app.diagrams.net" modified="2023-04-24T12:15:20.659Z" agent="Mozilla/5.0 (Windows NT 10.0; Win64; x64) AppleWebKit/537.36 (KHTML, like Gecko) Chrome/111.0.0.0 Safari/537.36" etag="kxbXF6Y95OmGLeecmEWC" version="21.2.1" type="device">
  <diagram id="jGerHa19D_e0McWDrIxB" name="Page-1">
    <mxGraphModel dx="989" dy="549" grid="1" gridSize="10" guides="1" tooltips="1" connect="1" arrows="1" fold="1" page="1" pageScale="1" pageWidth="850" pageHeight="1100" math="0" shadow="0">
      <root>
        <mxCell id="0" />
        <mxCell id="1" parent="0" />
        <mxCell id="ROhZX6uPs9uJ00iQo2_F-108" style="edgeStyle=orthogonalEdgeStyle;rounded=0;orthogonalLoop=1;jettySize=auto;html=1;entryX=1;entryY=0.5;entryDx=0;entryDy=0;" parent="1" edge="1">
          <mxGeometry relative="1" as="geometry">
            <Array as="points">
              <mxPoint x="1555" y="948" />
              <mxPoint x="1555" y="845" />
            </Array>
            <mxPoint x="1425" y="845" as="targetPoint" />
          </mxGeometry>
        </mxCell>
        <mxCell id="ROhZX6uPs9uJ00iQo2_F-109" value="[Переход]" style="edgeLabel;html=1;align=center;verticalAlign=middle;resizable=0;points=[];" parent="ROhZX6uPs9uJ00iQo2_F-108" vertex="1" connectable="0">
          <mxGeometry x="-0.0964" y="4" relative="1" as="geometry">
            <mxPoint x="29" y="-24" as="offset" />
          </mxGeometry>
        </mxCell>
        <mxCell id="Z1GdnrEUFYO8o0XKGosL-1" style="edgeStyle=orthogonalEdgeStyle;rounded=0;orthogonalLoop=1;jettySize=auto;html=1;entryX=1;entryY=0.5;entryDx=0;entryDy=0;" parent="1" edge="1">
          <mxGeometry relative="1" as="geometry">
            <Array as="points">
              <mxPoint x="570" y="313" />
              <mxPoint x="570" y="210" />
            </Array>
            <mxPoint x="440" y="210" as="targetPoint" />
          </mxGeometry>
        </mxCell>
        <mxCell id="Z1GdnrEUFYO8o0XKGosL-2" value="[Переход]" style="edgeLabel;html=1;align=center;verticalAlign=middle;resizable=0;points=[];" parent="Z1GdnrEUFYO8o0XKGosL-1" vertex="1" connectable="0">
          <mxGeometry x="-0.0964" y="4" relative="1" as="geometry">
            <mxPoint x="29" y="-24" as="offset" />
          </mxGeometry>
        </mxCell>
        <mxCell id="Z1GdnrEUFYO8o0XKGosL-3" style="edgeStyle=orthogonalEdgeStyle;rounded=0;orthogonalLoop=1;jettySize=auto;html=1;entryX=1;entryY=0.5;entryDx=0;entryDy=0;" parent="1" edge="1">
          <mxGeometry relative="1" as="geometry">
            <Array as="points">
              <mxPoint x="1355" y="978" />
              <mxPoint x="1355" y="875" />
            </Array>
            <mxPoint x="1225" y="875" as="targetPoint" />
          </mxGeometry>
        </mxCell>
        <mxCell id="Z1GdnrEUFYO8o0XKGosL-4" value="[Переход]" style="edgeLabel;html=1;align=center;verticalAlign=middle;resizable=0;points=[];" parent="Z1GdnrEUFYO8o0XKGosL-3" vertex="1" connectable="0">
          <mxGeometry x="-0.0964" y="4" relative="1" as="geometry">
            <mxPoint x="29" y="-24" as="offset" />
          </mxGeometry>
        </mxCell>
        <mxCell id="Z1GdnrEUFYO8o0XKGosL-5" style="edgeStyle=orthogonalEdgeStyle;rounded=0;orthogonalLoop=1;jettySize=auto;html=1;entryX=1;entryY=0.5;entryDx=0;entryDy=0;" parent="1" edge="1">
          <mxGeometry relative="1" as="geometry">
            <Array as="points">
              <mxPoint x="370" y="343" />
              <mxPoint x="370" y="240" />
            </Array>
            <mxPoint x="240" y="240" as="targetPoint" />
          </mxGeometry>
        </mxCell>
        <mxCell id="Z1GdnrEUFYO8o0XKGosL-6" value="[Переход]" style="edgeLabel;html=1;align=center;verticalAlign=middle;resizable=0;points=[];" parent="Z1GdnrEUFYO8o0XKGosL-5" vertex="1" connectable="0">
          <mxGeometry x="-0.0964" y="4" relative="1" as="geometry">
            <mxPoint x="29" y="-24" as="offset" />
          </mxGeometry>
        </mxCell>
        <mxCell id="e5WfRHg5pOKCV-M4I9D9-63" style="edgeStyle=orthogonalEdgeStyle;rounded=0;orthogonalLoop=1;jettySize=auto;html=1;" edge="1" parent="1" source="e5WfRHg5pOKCV-M4I9D9-64" target="e5WfRHg5pOKCV-M4I9D9-67">
          <mxGeometry relative="1" as="geometry" />
        </mxCell>
        <mxCell id="e5WfRHg5pOKCV-M4I9D9-64" value="" style="ellipse;whiteSpace=wrap;html=1;aspect=fixed;" vertex="1" parent="1">
          <mxGeometry x="695" y="470" width="20" height="20" as="geometry" />
        </mxCell>
        <mxCell id="e5WfRHg5pOKCV-M4I9D9-65" style="edgeStyle=orthogonalEdgeStyle;rounded=0;orthogonalLoop=1;jettySize=auto;html=1;" edge="1" parent="1" source="e5WfRHg5pOKCV-M4I9D9-67" target="e5WfRHg5pOKCV-M4I9D9-73">
          <mxGeometry relative="1" as="geometry" />
        </mxCell>
        <mxCell id="e5WfRHg5pOKCV-M4I9D9-67" value="Главная страница" style="ellipse;whiteSpace=wrap;html=1;" vertex="1" parent="1">
          <mxGeometry x="645" y="550" width="120" height="50" as="geometry" />
        </mxCell>
        <mxCell id="e5WfRHg5pOKCV-M4I9D9-69" style="edgeStyle=orthogonalEdgeStyle;rounded=0;orthogonalLoop=1;jettySize=auto;html=1;entryX=1;entryY=0.5;entryDx=0;entryDy=0;" edge="1" parent="1">
          <mxGeometry relative="1" as="geometry">
            <Array as="points">
              <mxPoint x="895" y="778" />
              <mxPoint x="895" y="675" />
            </Array>
            <mxPoint x="765" y="675" as="targetPoint" />
          </mxGeometry>
        </mxCell>
        <mxCell id="e5WfRHg5pOKCV-M4I9D9-70" value="[Переход]" style="edgeLabel;html=1;align=center;verticalAlign=middle;resizable=0;points=[];" vertex="1" connectable="0" parent="e5WfRHg5pOKCV-M4I9D9-69">
          <mxGeometry x="-0.0964" y="4" relative="1" as="geometry">
            <mxPoint x="29" y="-24" as="offset" />
          </mxGeometry>
        </mxCell>
        <mxCell id="e5WfRHg5pOKCV-M4I9D9-71" value="[Переход к главной]" style="edgeStyle=orthogonalEdgeStyle;rounded=0;orthogonalLoop=1;jettySize=auto;html=1;entryX=0;entryY=0.5;entryDx=0;entryDy=0;" edge="1" parent="1" source="e5WfRHg5pOKCV-M4I9D9-73" target="e5WfRHg5pOKCV-M4I9D9-67">
          <mxGeometry relative="1" as="geometry">
            <Array as="points">
              <mxPoint x="595" y="675" />
              <mxPoint x="595" y="575" />
            </Array>
          </mxGeometry>
        </mxCell>
        <mxCell id="e5WfRHg5pOKCV-M4I9D9-72" value="[Поиск по содержимому]" style="edgeStyle=orthogonalEdgeStyle;rounded=0;orthogonalLoop=1;jettySize=auto;html=1;entryX=0;entryY=0.5;entryDx=0;entryDy=0;" edge="1" parent="1" source="e5WfRHg5pOKCV-M4I9D9-73" target="e5WfRHg5pOKCV-M4I9D9-77">
          <mxGeometry x="-0.2174" y="21" relative="1" as="geometry">
            <mxPoint x="-6" y="-15" as="offset" />
          </mxGeometry>
        </mxCell>
        <mxCell id="e5WfRHg5pOKCV-M4I9D9-73" value="Страница выставок" style="ellipse;whiteSpace=wrap;html=1;" vertex="1" parent="1">
          <mxGeometry x="645" y="650" width="120" height="50" as="geometry" />
        </mxCell>
        <mxCell id="e5WfRHg5pOKCV-M4I9D9-74" value="[Переход к главной]" style="edgeStyle=orthogonalEdgeStyle;rounded=0;orthogonalLoop=1;jettySize=auto;html=1;entryX=0.5;entryY=0;entryDx=0;entryDy=0;" edge="1" parent="1" source="e5WfRHg5pOKCV-M4I9D9-77" target="e5WfRHg5pOKCV-M4I9D9-67">
          <mxGeometry relative="1" as="geometry">
            <Array as="points">
              <mxPoint x="995" y="700" />
              <mxPoint x="995" y="530" />
              <mxPoint x="705" y="530" />
            </Array>
          </mxGeometry>
        </mxCell>
        <mxCell id="e5WfRHg5pOKCV-M4I9D9-75" style="edgeStyle=orthogonalEdgeStyle;rounded=0;orthogonalLoop=1;jettySize=auto;html=1;entryX=0.5;entryY=1;entryDx=0;entryDy=0;" edge="1" parent="1" source="e5WfRHg5pOKCV-M4I9D9-77" target="e5WfRHg5pOKCV-M4I9D9-73">
          <mxGeometry relative="1" as="geometry">
            <Array as="points">
              <mxPoint x="915" y="730" />
              <mxPoint x="705" y="730" />
            </Array>
          </mxGeometry>
        </mxCell>
        <mxCell id="e5WfRHg5pOKCV-M4I9D9-76" value="[Переход обратно]" style="edgeLabel;html=1;align=center;verticalAlign=middle;resizable=0;points=[];" vertex="1" connectable="0" parent="e5WfRHg5pOKCV-M4I9D9-75">
          <mxGeometry x="0.128" y="1" relative="1" as="geometry">
            <mxPoint as="offset" />
          </mxGeometry>
        </mxCell>
        <mxCell id="e5WfRHg5pOKCV-M4I9D9-77" value="Поиск на странице&lt;br&gt;выставок" style="ellipse;whiteSpace=wrap;html=1;" vertex="1" parent="1">
          <mxGeometry x="855" y="680" width="120" height="40" as="geometry" />
        </mxCell>
      </root>
    </mxGraphModel>
  </diagram>
</mxfile>
